<?xml version="1.0" encoding="UTF-8" standalone="no"?>
<svg
   width="456"
   height="456"
   viewBox="0 0 456 456"
   version="1.1"
   xml:space="preserve"
   style="fill-rule:evenodd;clip-rule:evenodd;stroke-linejoin:round;stroke-miterlimit:2;"
   id="svg4"
   sodipodi:docname="splash.svg"
   inkscape:version="1.3.2 (091e20e, 2023-11-25)"
   xmlns:inkscape="http://www.inkscape.org/namespaces/inkscape"
   xmlns:sodipodi="http://sodipodi.sourceforge.net/DTD/sodipodi-0.dtd"
   xmlns="http://www.w3.org/2000/svg"
   xmlns:svg="http://www.w3.org/2000/svg"><defs
   id="defs4" /><sodipodi:namedview
   id="namedview4"
   pagecolor="#ffffff"
   bordercolor="#000000"
   borderopacity="0.25"
   inkscape:showpageshadow="2"
   inkscape:pageopacity="0.0"
   inkscape:pagecheckerboard="0"
   inkscape:deskcolor="#d1d1d1"
   inkscape:zoom="0.51754386"
   inkscape:cx="227.0339"
   inkscape:cy="228.9661"
   inkscape:window-width="1224"
   inkscape:window-height="776"
   inkscape:window-x="217"
   inkscape:window-y="25"
   inkscape:window-maximized="0"
   inkscape:current-layer="svg4"
   showguides="true" />
    
    
    
    
<style
   type="text/css"
   id="style1">
	.st0{fill:#5CB2FF;}
</style><g
   id="g14"
   transform="matrix(0.35826823,0,0,0.35826823,29.761232,40.9392)">
	<path
   class="st0"
   d="m 298.89,331.8 c 19.6,4.69 35.54,10.75 47.82,18.21 12.28,7.46 21.35,16.67 27.2,27.65 5.84,10.96 8.76,24.04 8.76,39.25 0,19.01 -4.98,35.68 -14.9,50.01 -9.96,14.33 -24.06,25.36 -42.34,33.11 -18.28,7.75 -39.7,11.62 -64.26,11.62 -24.58,0 -45.71,-3.87 -63.4,-11.62 -17.69,-7.75 -31.5,-19.08 -41.45,-33.99 -9.94,-14.92 -15.51,-32.91 -16.67,-53.96 h 67.99 c 0.59,9.64 3.14,17.92 7.68,24.78 4.53,6.87 10.82,12.07 18.87,15.58 8.05,3.5 17.62,5.27 28.74,5.27 16.08,0 28.74,-2.93 37.95,-8.78 9.21,-5.84 13.82,-13.74 13.82,-23.69 0,-5.55 -1.7,-10.37 -5.05,-14.48 -3.36,-4.09 -8.84,-7.68 -16.44,-10.75 -7.62,-3.07 -18.14,-6.21 -31.59,-9.42 L 233.11,384 c -20.19,-4.68 -36.79,-11.12 -49.8,-19.3 -13.01,-8.19 -22.67,-18.28 -28.95,-30.27 -6.28,-12 -9.42,-26.33 -9.42,-43 0,-18.42 4.61,-34.57 13.82,-48.46 9.21,-13.89 22.37,-24.58 39.48,-32.02 17.1,-7.46 36.91,-11.19 59.44,-11.19 23.1,0 43.21,3.87 60.31,11.62 17.12,7.76 30.63,19.01 40.57,33.79 9.94,14.76 15.65,32.52 17.12,53.3 h -68.44 c -0.59,-9.37 -2.93,-17.33 -7.01,-23.92 -4.11,-6.57 -9.87,-11.48 -17.33,-14.69 -7.46,-3.21 -16.44,-4.82 -26.97,-4.82 -9.37,0 -17.4,1.23 -24.13,3.71 -6.73,2.5 -11.92,6 -15.56,10.53 -3.66,4.53 -5.5,10.03 -5.5,16.46 0,6.14 1.77,11.48 5.27,16.01 3.52,4.53 9.07,8.48 16.67,11.83 7.6,3.37 17.99,6.66 31.15,9.87 z"
   id="path1" />
	<path
   class="st0"
   d="m 298.89,664.63 c 19.6,4.69 35.54,10.75 47.82,18.21 12.28,7.46 21.35,16.67 27.2,27.65 5.84,10.96 8.76,24.04 8.76,39.25 0,19.01 -4.98,35.68 -14.9,50.01 -9.96,14.33 -24.06,25.36 -42.34,33.11 -18.28,7.75 -39.7,11.62 -64.26,11.62 -24.58,0 -45.71,-3.87 -63.4,-11.62 -17.69,-7.75 -31.5,-19.08 -41.45,-33.99 -9.94,-14.92 -15.51,-32.91 -16.67,-53.96 h 67.99 c 0.59,9.64 3.14,17.92 7.68,24.78 4.53,6.87 10.82,12.07 18.87,15.58 8.05,3.5 17.62,5.27 28.74,5.27 16.08,0 28.74,-2.93 37.95,-8.78 9.21,-5.84 13.82,-13.74 13.82,-23.69 0,-5.55 -1.7,-10.37 -5.05,-14.48 -3.36,-4.09 -8.84,-7.68 -16.44,-10.75 -7.62,-3.07 -18.14,-6.21 -31.59,-9.42 l -28.51,-6.59 c -20.19,-4.68 -36.79,-11.12 -49.8,-19.3 -13.01,-8.19 -22.67,-18.28 -28.95,-30.27 -6.28,-11.99 -9.42,-26.33 -9.42,-43 0,-18.42 4.61,-34.57 13.82,-48.46 9.21,-13.89 22.37,-24.58 39.48,-32.02 17.1,-7.46 36.91,-11.19 59.44,-11.19 23.1,0 43.21,3.87 60.31,11.62 17.12,7.76 30.63,19.01 40.57,33.79 9.94,14.76 15.65,32.52 17.12,53.3 h -68.44 c -0.59,-9.37 -2.93,-17.33 -7.01,-23.92 -4.11,-6.57 -9.87,-11.48 -17.33,-14.69 -7.46,-3.21 -16.44,-4.82 -26.97,-4.82 -9.37,0 -17.4,1.23 -24.13,3.71 -6.73,2.5 -11.92,6 -15.56,10.53 -3.66,4.53 -5.5,10.03 -5.5,16.46 0,6.14 1.77,11.48 5.27,16.01 3.52,4.53 9.07,8.48 16.67,11.83 7.6,3.37 17.99,6.66 31.15,9.87 z"
   id="path2" />
	<path
   class="st0"
   d="M 409.87,579.07 V 205.46 h 67.99 V 326.1 H 605.1 V 205.46 h 67.99 V 432.85 H 605.1 V 388.4 H 477.86 v 190.67 z"
   id="path3" />
	<path
   class="st0"
   d="M 409.87,579.07 V 205.46 h 67.99 V 326.1 H 605.1 V 205.46 h 67.99 V 432.85 H 605.1 V 388.4 H 477.86 v 190.67 z"
   id="path4" />
	<path
   class="st0"
   d="M 768.71,829.56 C 749.13,819.64 734.14,805.3 723.75,786.58 713.38,767.87 708.19,745.63 708.19,719.89 V 470.87 h 67.99 v 239.81 c 0,14.92 2.41,27.65 7.25,38.16 4.82,10.53 11.83,18.58 21.04,24.13 9.21,5.55 20.4,8.34 33.56,8.34 12.87,0 23.92,-2.7 33.13,-8.12 9.21,-5.41 16.15,-13.37 20.83,-23.9 4.68,-10.53 7.01,-23.4 7.01,-38.61 v -26.72 h 68 v 35.93 c 0,25.74 -5.19,47.98 -15.58,66.69 -10.37,18.72 -25.22,33.06 -44.52,42.98 -19.31,9.94 -42.11,14.92 -68.44,14.92 -26.91,0 -50.15,-4.98 -69.75,-14.92 z"
   id="path5" />
	<path
   class="st0"
   d="M 768.71,417.92 C 749.13,408 734.14,393.66 723.75,374.94 713.38,356.23 708.19,333.99 708.19,308.25 v -102.8 h 67.99 v 93.59 c 0,14.92 2.41,27.65 7.25,38.16 4.82,10.53 11.83,18.58 21.04,24.13 9.21,5.55 20.4,8.34 33.56,8.34 12.87,0 23.92,-2.7 33.13,-8.12 9.21,-5.41 16.15,-13.37 20.83,-23.9 4.68,-10.53 7.01,-23.4 7.01,-38.61 v -93.59 h 68 v 102.8 c 0,25.74 -5.19,47.98 -15.58,66.69 -10.37,18.72 -25.22,33.06 -44.52,42.98 -19.31,9.94 -42.11,14.92 -68.44,14.92 -26.91,0 -50.15,-4.98 -69.75,-14.92 z"
   id="path6" />
	<path
   class="st0"
   d="M 673.09,470.87 V 844.48 H 605.1 V 723.84 H 477.86 V 844.49 H 409.87 V 617.1 h 67.99 v 44.45 H 605.1 V 470.87 Z"
   id="path7" />
	<g
   id="g13">
		<path
   class="st0"
   d="m 916.47,637.37 4.55,4.38 c -3.04,3.25 -4.55,6.22 -4.55,8.91 0,1.71 0.54,3.14 1.63,4.29 1.06,1.15 2.39,1.73 3.95,1.73 1.58,0 2.95,-0.65 4.14,-1.95 1.17,-1.28 2.65,-3.58 4.36,-6.87 1.73,-3.32 3.66,-5.85 5.75,-7.65 2.1,-1.78 4.66,-2.67 7.68,-2.67 3.86,0 7.11,1.32 9.74,3.99 2.65,2.69 3.97,5.96 3.97,9.87 0,5.46 -2.3,10 -6.94,13.62 l -4.77,-4.27 c 3.45,-2.99 5.18,-6.01 5.18,-9.08 0,-2.1 -0.67,-3.88 -2.06,-5.38 -1.37,-1.47 -2.97,-2.23 -4.84,-2.23 -1.84,0 -3.38,0.69 -4.62,2.04 -1.24,1.34 -2.67,3.66 -4.34,6.94 -1.65,3.27 -3.47,5.75 -5.49,7.42 -1.99,1.69 -4.64,2.52 -7.91,2.52 -3.27,0 -6.07,-1.19 -8.39,-3.58 -2.3,-2.41 -3.47,-5.57 -3.47,-9.5 -0.01,-3.97 2.13,-8.13 6.43,-12.53 z"
   id="path8" />
		<path
   class="st0"
   d="m 917.14,608.08 v 8.91 h 31.53 c 1.15,0 1.86,-0.17 2.1,-0.5 0.26,-0.33 0.37,-1.15 0.37,-2.47 v -3.97 h 5.88 c 0.43,2.65 0.65,4.66 0.65,6.03 0,2.65 -0.65,4.6 -1.93,5.85 -1.3,1.28 -3.36,1.91 -6.16,1.91 h -32.44 v 7.76 h -5.94 v -7.76 h -16.93 v -6.85 h 16.93 v -8.91 z"
   id="path9" />
		<path
   class="st0"
   d="m 956.19,562 v 6.85 h -6.79 c 5.29,4.47 7.94,9.74 7.94,15.85 0,3.25 -0.85,6.18 -2.52,8.82 -1.69,2.65 -3.99,4.62 -6.94,5.94 -2.95,1.32 -7.48,1.99 -13.57,1.99 H 911.2 v -6.76 h 21.47 c 4.94,0 8.3,-0.24 10.1,-0.72 1.78,-0.46 3.3,-1.15 4.53,-2.06 1.24,-0.91 2.17,-2.06 2.78,-3.47 0.61,-1.41 0.91,-3.1 0.91,-5.12 0,-1.99 -0.5,-3.97 -1.5,-5.9 -0.98,-1.93 -2.36,-3.58 -4.12,-4.97 -1.76,-1.37 -3.64,-2.32 -5.62,-2.84 -1.97,-0.52 -5.94,-0.78 -11.88,-0.78 H 911.2 V 562 Z"
   id="path10" />
		<path
   class="st0"
   d="m 956.19,505.72 v 6.7 h -6.61 c 5.4,4.9 8.09,10.54 8.09,16.96 0,6.42 -2.34,11.88 -7,16.39 -4.68,4.51 -10.3,6.76 -16.85,6.76 -6.55,0 -12.14,-2.28 -16.8,-6.85 -4.64,-4.57 -6.98,-10.15 -6.98,-16.72 0,-6.57 2.69,-12.1 8.02,-16.54 h -23.79 v -6.7 z m -4.88,23.11 c 0,-4.34 -1.63,-8.22 -4.88,-11.64 -3.23,-3.4 -7.35,-5.12 -12.34,-5.12 -4.97,0 -9.13,1.58 -12.47,4.75 -3.32,3.17 -4.99,7.16 -4.99,11.97 0,4.81 1.71,8.85 5.16,12.06 3.45,3.23 7.48,4.84 12.14,4.84 4.64,0 8.69,-1.65 12.16,-4.97 3.49,-3.31 5.22,-7.27 5.22,-11.89 z"
   id="path11" />
		<path
   class="st0"
   d="m 894.26,491.51 c 0,-1.47 0.52,-2.73 1.54,-3.75 1.02,-1.02 2.25,-1.52 3.71,-1.52 1.46,0 2.69,0.5 3.71,1.52 1.02,1.02 1.54,2.25 1.54,3.71 0,1.47 -0.52,2.71 -1.58,3.73 -1.04,1.02 -2.25,1.52 -3.66,1.52 -1.41,0 -2.62,-0.5 -3.66,-1.52 -1.08,-1.02 -1.6,-2.25 -1.6,-3.69 z m 61.93,-3.47 v 6.85 H 911.2 v -6.85 z"
   id="path12" />
		<path
   class="st0"
   d="m 910.03,456.19 c 0,-6.48 2.34,-12.01 7.02,-16.54 4.68,-4.53 10.3,-6.81 16.85,-6.81 6.55,0 12.14,2.23 16.78,6.72 4.66,4.49 6.98,10.04 6.98,16.63 0,6.61 -2.32,12.16 -6.98,16.67 -4.64,4.51 -10.23,6.76 -16.78,6.76 -6.55,0 -12.16,-2.25 -16.85,-6.81 -4.68,-4.52 -7.02,-10.07 -7.02,-16.62 z m 41.11,0 c 0,-4.55 -1.65,-8.46 -4.99,-11.66 -3.34,-3.23 -7.35,-4.84 -12.06,-4.84 -4.71,0 -8.78,1.63 -12.21,4.9 -3.45,3.27 -5.16,7.16 -5.16,11.64 0,4.49 1.71,8.35 5.16,11.6 3.43,3.25 7.52,4.88 12.25,4.88 4.73,0 8.76,-1.58 12.06,-4.7 3.3,-3.14 4.95,-7.07 4.95,-11.82 z"
   id="path13" />
	</g>
</g></svg>
